<svg xmlns="http://www.w3.org/2000/svg" xml:space="preserve" style="fill-rule:evenodd;clip-rule:evenodd;stroke-linecap:round;stroke-linejoin:round;stroke-miterlimit:1.5" viewBox="0 0 512 512"><clipPath id="a"><path d="M512 0v512H0V0h512ZM109.249 224.429a12.5 12.5 0 0 0-4.605 4.49L28.901 355.853c-.057.096-.113.193-.168.29-9.643 17.191-3.515 38.976 13.676 48.618l20.859 11.701c17.19 9.642 38.975 3.515 48.618-13.676.056-.1.111-.202.165-.304l67.796-129.101a12.45 12.45 0 0 0 1.428-6.242 12.505 12.505 0 0 0 5.715-5.985l6.311-13.947a12.456 12.456 0 0 0 5.929-5.119l95.143-158.776a12.494 12.494 0 0 0 1.376-9.571 12.5 12.5 0 0 0-6.13-14.129L221.424 22.56a12.492 12.492 0 0 0-8.568-1.243 12.5 12.5 0 0 0-13.9 6.882l-75.939 160.545a12.475 12.475 0 0 0-.332 9.922l-11.584 18.803a12.5 12.5 0 0 0-1.852 6.96Zm238.271 5.722A12.5 12.5 0 0 0 337 251.179l100.042 105.215a12.5 12.5 0 0 0 20.914-4.65l30.052-89.904a12.5 12.5 0 0 0-10.394-16.377L347.52 230.151Zm6.684 47.642a12.502 12.502 0 0 0-23.591 1.72l-55.096 209.643a12.499 12.499 0 0 0 18.126 14.123l116.906-64.483a12.5 12.5 0 0 0 5.463-15.842l-61.808-145.161Z"/></clipPath><g clip-path="url(#a)"><path d="M399.581 89.759c63.521 49.467 61.771 158.099-3.906 242.435-65.677 84.336-170.569 112.646-234.091 63.178-63.521-49.467-61.771-158.099 3.906-242.435 65.677-84.336 170.569-112.645 234.091-63.178ZM165.49 152.937l31.608 24.615m198.577 154.642-32.537-23.923m-201.554 87.101 24.812-31.861M399.581 89.759l-24.766 31.801" style="fill:none;stroke:#c48c0f;stroke-width:37.5px"/><path d="M249.604 231.334a18.719 18.719 0 0 1 4.967-4.597l.028-.013a18.842 18.842 0 0 1 3.712-1.812l147.46-71.975L297.4 240.113l42.741 24.105-71.976-3.237a18.802 18.802 0 0 1-8.695-.391l-.015-.001a18.684 18.684 0 0 1-10.661-7.972 18.677 18.677 0 0 1-2.732-7.374 18.665 18.665 0 0 1 .537-7.845 18.704 18.704 0 0 1 3.005-6.064Z" style="fill:#c48c0f"/></g><path d="m342.703 282.69-55.097 209.644 116.905-64.483-61.808-145.161Zm3.356-40.124 130.094 15.311-30.053 89.904-100.041-105.215Z" style="fill:#f2ed57"/><path d="m168.781 267.569-67.797 129.102c-6.268 11.173-20.428 15.156-31.601 8.889l-20.859-11.7c-11.173-6.268-15.156-20.428-8.889-31.602l75.743-126.934 53.403 32.245ZM252.618 85.81 175.601 256l-53.858-31.974 96.665-156.898 34.21 18.682ZM134.317 194.089l75.939-160.546 5.201 29.843-81.14 130.703Zm81.14-160.546 68.194 37.052L256 81.511l-35.92-19.534-4.623-28.434Zm-26.95 202.119 69.458-149.066 25.686-9.709-95.144 158.775Z" style="fill:#ffe04b"/></svg>